<?xml version="1.0" standalone="no"?>
<!DOCTYPE svg PUBLIC "-//W3C//DTD SVG 20010904//EN"
 "http://www.w3.org/TR/2001/REC-SVG-20010904/DTD/svg10.dtd">
<svg version="1.0" xmlns="http://www.w3.org/2000/svg"
 width="1801.000000pt" height="1801.000000pt" viewBox="0 0 1801.000000 1801.000000"
 preserveAspectRatio="xMidYMid meet">
<metadata>
Created by potrace 1.11, written by Peter Selinger 2001-2013
</metadata>
<g transform="translate(0.000000,1801.000000) scale(0.100000,-0.100000)"
fill="#000000" stroke="none">
<path d="M8717 17985 c-127 -18 -287 -58 -407 -102 -132 -49 -328 -152 -431
-226 -132 -94 -7391 -6351 -7489 -6453 -199 -210 -331 -471 -375 -739 -14 -91
-16 -484 -13 -4415 l3 -4315 28 -125 c92 -413 270 -744 552 -1025 283 -284
619 -464 1030 -552 l130 -28 7255 0 7255 0 130 28 c411 88 747 268 1030 552
283 282 460 611 552 1025 l28 125 3 4315 c3 3931 1 4324 -13 4415 -44 268
-176 530 -375 739 -96 101 -7365 6365 -7492 6456 -227 163 -547 286 -844 325
-140 18 -421 18 -557 0z m-4222 -5711 c165 -42 323 -168 402 -320 56 -107 76
-188 76 -304 0 -176 -64 -332 -188 -455 -123 -124 -279 -188 -455 -188 -176 0
-332 64 -455 188 -124 123 -188 279 -188 455 0 176 63 329 187 454 164 165
393 227 621 170z m4955 -650 c781 -71 1545 -349 2200 -800 1079 -743 1800
-1907 1979 -3194 34 -242 43 -383 43 -655 0 -271 -9 -412 -43 -655 -111 -803
-440 -1576 -943 -2219 -608 -777 -1447 -1344 -2389 -1615 -433 -124 -824 -178
-1292 -178 -468 0 -859 54 -1292 178 -1765 507 -3080 2020 -3332 3834 -34 243
-43 384 -43 655 0 271 9 412 43 655 163 1175 779 2252 1714 2997 766 611 1686
960 2670 1013 187 10 470 3 685 -16z"/>
<path d="M8665 10639 c-701 -67 -1364 -329 -1915 -758 -675 -525 -1154 -1278
-1334 -2096 -63 -289 -86 -502 -86 -810 0 -308 23 -521 86 -808 198 -894 749
-1708 1509 -2226 531 -363 1115 -572 1760 -631 239 -22 599 -11 860 26 804
113 1606 535 2154 1134 570 624 895 1353 971 2185 13 142 13 498 0 640 -95
1032 -597 1953 -1410 2586 -558 435 -1216 693 -1935 759 -129 12 -530 11 -660
-1z"/>
</g>
</svg>
